<mxfile host="app.diagrams.net" modified="2023-02-23T06:55:43.593Z" agent="5.0 (Windows NT 10.0; Win64; x64) AppleWebKit/537.36 (KHTML, like Gecko) Chrome/110.0.0.0 Safari/537.36" etag="dp7phJBWs49R1vQqnAQ-" version="20.8.11" type="github">
  <diagram id="uND3n0JbfYk_nQdqDS2R" name="Page-1">
    <mxGraphModel dx="1876" dy="2069" grid="1" gridSize="10" guides="1" tooltips="1" connect="1" arrows="1" fold="1" page="1" pageScale="1" pageWidth="850" pageHeight="1100" math="0" shadow="0">
      <root>
        <mxCell id="0" />
        <mxCell id="1" parent="0" />
        <mxCell id="AcytjInfTmPCzd0XIlV4-133" value="" style="edgeStyle=orthogonalEdgeStyle;html=1;endArrow=block;elbow=vertical;startArrow=block;startFill=1;endFill=1;strokeColor=#545B64;rounded=0;fontSize=13;exitX=0.266;exitY=1.004;exitDx=0;exitDy=0;exitPerimeter=0;startSize=6;sourcePerimeterSpacing=0;jumpSize=6;" parent="1" source="AcytjInfTmPCzd0XIlV4-87" target="AcytjInfTmPCzd0XIlV4-8" edge="1">
          <mxGeometry width="100" relative="1" as="geometry">
            <mxPoint x="240" y="600" as="sourcePoint" />
            <mxPoint x="340" y="600" as="targetPoint" />
          </mxGeometry>
        </mxCell>
        <mxCell id="AcytjInfTmPCzd0XIlV4-2" value="AWS Cloud" style="points=[[0,0],[0.25,0],[0.5,0],[0.75,0],[1,0],[1,0.25],[1,0.5],[1,0.75],[1,1],[0.75,1],[0.5,1],[0.25,1],[0,1],[0,0.75],[0,0.5],[0,0.25]];outlineConnect=0;gradientColor=none;html=1;whiteSpace=wrap;fontSize=12;fontStyle=0;shape=mxgraph.aws4.group;grIcon=mxgraph.aws4.group_aws_cloud_alt;strokeColor=#232F3E;fillColor=none;verticalAlign=top;align=left;spacingLeft=30;fontColor=#232F3E;dashed=0;" parent="1" vertex="1">
          <mxGeometry x="30" y="40" width="1130" height="1820" as="geometry" />
        </mxCell>
        <mxCell id="AcytjInfTmPCzd0XIlV4-3" value="Region" style="points=[[0,0],[0.25,0],[0.5,0],[0.75,0],[1,0],[1,0.25],[1,0.5],[1,0.75],[1,1],[0.75,1],[0.5,1],[0.25,1],[0,1],[0,0.75],[0,0.5],[0,0.25]];outlineConnect=0;gradientColor=none;html=1;whiteSpace=wrap;fontSize=12;fontStyle=0;shape=mxgraph.aws4.group;grIcon=mxgraph.aws4.group_region;strokeColor=#147EBA;fillColor=none;verticalAlign=top;align=left;spacingLeft=30;fontColor=#147EBA;dashed=1;strokeWidth=4;" parent="1" vertex="1">
          <mxGeometry x="70" y="70" width="980" height="1750" as="geometry" />
        </mxCell>
        <mxCell id="AcytjInfTmPCzd0XIlV4-4" value="VPC" style="points=[[0,0],[0.25,0],[0.5,0],[0.75,0],[1,0],[1,0.25],[1,0.5],[1,0.75],[1,1],[0.75,1],[0.5,1],[0.25,1],[0,1],[0,0.75],[0,0.5],[0,0.25]];outlineConnect=0;gradientColor=none;html=1;whiteSpace=wrap;fontSize=12;fontStyle=0;shape=mxgraph.aws4.group;grIcon=mxgraph.aws4.group_vpc;strokeColor=#248814;fillColor=none;verticalAlign=top;align=left;spacingLeft=30;fontColor=#AAB7B8;dashed=0;strokeWidth=3;" parent="1" vertex="1">
          <mxGeometry x="110" y="110" width="820" height="1670" as="geometry" />
        </mxCell>
        <mxCell id="AcytjInfTmPCzd0XIlV4-8" value="Public subnet" style="points=[[0,0],[0.25,0],[0.5,0],[0.75,0],[1,0],[1,0.25],[1,0.5],[1,0.75],[1,1],[0.75,1],[0.5,1],[0.25,1],[0,1],[0,0.75],[0,0.5],[0,0.25]];outlineConnect=0;gradientColor=none;html=1;whiteSpace=wrap;fontSize=12;fontStyle=0;shape=mxgraph.aws4.group;grIcon=mxgraph.aws4.group_security_group;grStroke=0;strokeColor=#248814;fillColor=#E9F3E6;verticalAlign=top;align=left;spacingLeft=30;fontColor=#248814;dashed=0;" parent="1" vertex="1">
          <mxGeometry x="150" y="690" width="280" height="550" as="geometry" />
        </mxCell>
        <mxCell id="AcytjInfTmPCzd0XIlV4-9" value="Public subnet" style="points=[[0,0],[0.25,0],[0.5,0],[0.75,0],[1,0],[1,0.25],[1,0.5],[1,0.75],[1,1],[0.75,1],[0.5,1],[0.25,1],[0,1],[0,0.75],[0,0.5],[0,0.25]];outlineConnect=0;gradientColor=none;html=1;whiteSpace=wrap;fontSize=12;fontStyle=0;shape=mxgraph.aws4.group;grIcon=mxgraph.aws4.group_security_group;grStroke=0;strokeColor=#248814;fillColor=#E9F3E6;verticalAlign=top;align=left;spacingLeft=30;fontColor=#248814;dashed=0;" parent="1" vertex="1">
          <mxGeometry x="600" y="690" width="290" height="520" as="geometry" />
        </mxCell>
        <mxCell id="AcytjInfTmPCzd0XIlV4-10" value="Security group" style="fillColor=none;strokeColor=#DD3522;verticalAlign=top;fontStyle=0;fontColor=#DD3522;" parent="1" vertex="1">
          <mxGeometry x="180" y="740" width="230" height="470" as="geometry" />
        </mxCell>
        <mxCell id="AcytjInfTmPCzd0XIlV4-16" value="" style="outlineConnect=0;fontColor=#232F3E;gradientColor=none;fillColor=#D86613;strokeColor=none;dashed=0;verticalLabelPosition=bottom;verticalAlign=top;align=center;html=1;fontSize=12;fontStyle=0;aspect=fixed;pointerEvents=1;shape=mxgraph.aws4.m5_instance;" parent="1" vertex="1">
          <mxGeometry x="200" y="800" width="50" height="50" as="geometry" />
        </mxCell>
        <mxCell id="AcytjInfTmPCzd0XIlV4-17" value="" style="outlineConnect=0;fontColor=#232F3E;gradientColor=none;fillColor=#D86613;strokeColor=none;dashed=0;verticalLabelPosition=bottom;verticalAlign=top;align=center;html=1;fontSize=12;fontStyle=0;aspect=fixed;pointerEvents=1;shape=mxgraph.aws4.m5_instance;" parent="1" vertex="1">
          <mxGeometry x="340" y="790" width="48" height="48" as="geometry" />
        </mxCell>
        <mxCell id="AcytjInfTmPCzd0XIlV4-19" value="" style="outlineConnect=0;fontColor=#232F3E;gradientColor=none;fillColor=#D86613;strokeColor=none;dashed=0;verticalLabelPosition=bottom;verticalAlign=top;align=center;html=1;fontSize=12;fontStyle=0;aspect=fixed;pointerEvents=1;shape=mxgraph.aws4.m5_instance;" parent="1" vertex="1">
          <mxGeometry x="200" y="975" width="48" height="48" as="geometry" />
        </mxCell>
        <mxCell id="AcytjInfTmPCzd0XIlV4-20" value="" style="outlineConnect=0;fontColor=#232F3E;gradientColor=none;fillColor=#D86613;strokeColor=none;dashed=0;verticalLabelPosition=bottom;verticalAlign=top;align=center;html=1;fontSize=12;fontStyle=0;aspect=fixed;pointerEvents=1;shape=mxgraph.aws4.m5_instance;" parent="1" vertex="1">
          <mxGeometry x="341" y="927" width="48" height="48" as="geometry" />
        </mxCell>
        <mxCell id="YEiA6fVM-5rXdiScWKsi-6" style="edgeStyle=orthogonalEdgeStyle;rounded=0;jumpSize=6;orthogonalLoop=1;jettySize=auto;html=1;strokeWidth=1;startArrow=block;startFill=1;startSize=6;endSize=8;sourcePerimeterSpacing=0;targetPerimeterSpacing=0;" edge="1" parent="1">
          <mxGeometry relative="1" as="geometry">
            <mxPoint x="650" y="804" as="sourcePoint" />
            <mxPoint x="388" y="814" as="targetPoint" />
            <Array as="points">
              <mxPoint x="510" y="804" />
              <mxPoint x="510" y="814" />
            </Array>
          </mxGeometry>
        </mxCell>
        <mxCell id="AcytjInfTmPCzd0XIlV4-21" value="" style="outlineConnect=0;fontColor=#232F3E;gradientColor=none;fillColor=#D86613;strokeColor=none;dashed=0;verticalLabelPosition=bottom;verticalAlign=top;align=center;html=1;fontSize=12;fontStyle=0;aspect=fixed;pointerEvents=1;shape=mxgraph.aws4.m5_instance;" parent="1" vertex="1">
          <mxGeometry x="650" y="780" width="48" height="48" as="geometry" />
        </mxCell>
        <mxCell id="YEiA6fVM-5rXdiScWKsi-4" style="edgeStyle=orthogonalEdgeStyle;rounded=0;jumpSize=6;orthogonalLoop=1;jettySize=auto;html=1;strokeWidth=1;startArrow=block;startFill=1;startSize=6;endSize=8;sourcePerimeterSpacing=0;targetPerimeterSpacing=0;" edge="1" parent="1" source="AcytjInfTmPCzd0XIlV4-22" target="AcytjInfTmPCzd0XIlV4-20">
          <mxGeometry relative="1" as="geometry">
            <Array as="points">
              <mxPoint x="510" y="945" />
              <mxPoint x="510" y="951" />
            </Array>
          </mxGeometry>
        </mxCell>
        <mxCell id="AcytjInfTmPCzd0XIlV4-22" value="" style="outlineConnect=0;fontColor=#232F3E;gradientColor=none;fillColor=#D86613;strokeColor=none;dashed=0;verticalLabelPosition=bottom;verticalAlign=top;align=center;html=1;fontSize=12;fontStyle=0;aspect=fixed;pointerEvents=1;shape=mxgraph.aws4.m5_instance;" parent="1" vertex="1">
          <mxGeometry x="640" y="921" width="48" height="48" as="geometry" />
        </mxCell>
        <mxCell id="AcytjInfTmPCzd0XIlV4-23" value="" style="outlineConnect=0;fontColor=#232F3E;gradientColor=none;fillColor=#D86613;strokeColor=none;dashed=0;verticalLabelPosition=bottom;verticalAlign=top;align=center;html=1;fontSize=12;fontStyle=0;aspect=fixed;pointerEvents=1;shape=mxgraph.aws4.m5_instance;" parent="1" vertex="1">
          <mxGeometry x="641" y="997.5" width="48" height="48" as="geometry" />
        </mxCell>
        <mxCell id="YEiA6fVM-5rXdiScWKsi-11" style="edgeStyle=orthogonalEdgeStyle;rounded=0;jumpSize=6;orthogonalLoop=1;jettySize=auto;html=1;entryX=0.408;entryY=0.077;entryDx=0;entryDy=0;entryPerimeter=0;strokeWidth=1;startArrow=block;startFill=1;startSize=6;endSize=8;sourcePerimeterSpacing=0;targetPerimeterSpacing=0;" edge="1" parent="1" source="AcytjInfTmPCzd0XIlV4-24" target="AcytjInfTmPCzd0XIlV4-157">
          <mxGeometry relative="1" as="geometry">
            <Array as="points">
              <mxPoint x="510" y="1136" />
              <mxPoint x="510" y="600" />
              <mxPoint x="702" y="600" />
            </Array>
          </mxGeometry>
        </mxCell>
        <mxCell id="AcytjInfTmPCzd0XIlV4-24" value="" style="outlineConnect=0;fontColor=#232F3E;gradientColor=none;fillColor=#D86613;strokeColor=none;dashed=0;verticalLabelPosition=bottom;verticalAlign=top;align=center;html=1;fontSize=12;fontStyle=0;aspect=fixed;pointerEvents=1;shape=mxgraph.aws4.m5_instance;" parent="1" vertex="1">
          <mxGeometry x="650" y="1112" width="48" height="48" as="geometry" />
        </mxCell>
        <mxCell id="YEiA6fVM-5rXdiScWKsi-3" style="edgeStyle=orthogonalEdgeStyle;rounded=0;jumpSize=6;orthogonalLoop=1;jettySize=auto;html=1;strokeWidth=1;startArrow=block;startFill=1;startSize=6;endSize=8;sourcePerimeterSpacing=0;targetPerimeterSpacing=0;" edge="1" parent="1" source="AcytjInfTmPCzd0XIlV4-25" target="AcytjInfTmPCzd0XIlV4-23">
          <mxGeometry relative="1" as="geometry">
            <Array as="points">
              <mxPoint x="500" y="1022" />
              <mxPoint x="500" y="1022" />
            </Array>
          </mxGeometry>
        </mxCell>
        <mxCell id="AcytjInfTmPCzd0XIlV4-25" value="" style="outlineConnect=0;fontColor=#232F3E;gradientColor=none;fillColor=#D86613;strokeColor=none;dashed=0;verticalLabelPosition=bottom;verticalAlign=top;align=center;html=1;fontSize=12;fontStyle=0;aspect=fixed;pointerEvents=1;shape=mxgraph.aws4.r5_instance;" parent="1" vertex="1">
          <mxGeometry x="341" y="1000" width="48" height="48" as="geometry" />
        </mxCell>
        <mxCell id="YEiA6fVM-5rXdiScWKsi-12" style="edgeStyle=orthogonalEdgeStyle;rounded=0;jumpSize=6;orthogonalLoop=1;jettySize=auto;html=1;strokeWidth=1;startArrow=block;startFill=1;startSize=6;endSize=1;sourcePerimeterSpacing=0;targetPerimeterSpacing=0;endArrow=none;endFill=0;" edge="1" parent="1">
          <mxGeometry relative="1" as="geometry">
            <mxPoint x="509.9999999999998" y="1136" as="targetPoint" />
            <mxPoint x="389" y="1112" as="sourcePoint" />
            <Array as="points">
              <mxPoint x="510" y="1112" />
            </Array>
          </mxGeometry>
        </mxCell>
        <mxCell id="AcytjInfTmPCzd0XIlV4-26" value="" style="outlineConnect=0;fontColor=#232F3E;gradientColor=none;fillColor=#D86613;strokeColor=none;dashed=0;verticalLabelPosition=bottom;verticalAlign=top;align=center;html=1;fontSize=12;fontStyle=0;aspect=fixed;pointerEvents=1;shape=mxgraph.aws4.r5_instance;" parent="1" vertex="1">
          <mxGeometry x="341" y="1092" width="48" height="48" as="geometry" />
        </mxCell>
        <mxCell id="AcytjInfTmPCzd0XIlV4-27" value="" style="outlineConnect=0;fontColor=#232F3E;gradientColor=none;fillColor=#D86613;strokeColor=none;dashed=0;verticalLabelPosition=bottom;verticalAlign=top;align=center;html=1;fontSize=12;fontStyle=0;aspect=fixed;pointerEvents=1;shape=mxgraph.aws4.r5_instance;" parent="1" vertex="1">
          <mxGeometry x="206" y="1064" width="48" height="48" as="geometry" />
        </mxCell>
        <mxCell id="AcytjInfTmPCzd0XIlV4-28" value="" style="outlineConnect=0;fontColor=#232F3E;gradientColor=none;fillColor=#D86613;strokeColor=none;dashed=0;verticalLabelPosition=bottom;verticalAlign=top;align=center;html=1;fontSize=12;fontStyle=0;aspect=fixed;pointerEvents=1;shape=mxgraph.aws4.m6g_instance;" parent="1" vertex="1">
          <mxGeometry x="200" y="880" width="48" height="48" as="geometry" />
        </mxCell>
        <mxCell id="AcytjInfTmPCzd0XIlV4-29" value="" style="outlineConnect=0;fontColor=#232F3E;gradientColor=none;fillColor=#D86613;strokeColor=none;dashed=0;verticalLabelPosition=bottom;verticalAlign=top;align=center;html=1;fontSize=12;fontStyle=0;aspect=fixed;pointerEvents=1;shape=mxgraph.aws4.m6g_instance;" parent="1" vertex="1">
          <mxGeometry x="781" y="1008" width="48" height="48" as="geometry" />
        </mxCell>
        <mxCell id="AcytjInfTmPCzd0XIlV4-31" value="" style="outlineConnect=0;fontColor=#232F3E;gradientColor=none;fillColor=#D86613;strokeColor=none;dashed=0;verticalLabelPosition=bottom;verticalAlign=top;align=center;html=1;fontSize=12;fontStyle=0;aspect=fixed;pointerEvents=1;shape=mxgraph.aws4.r5_instance;" parent="1" vertex="1">
          <mxGeometry x="790" y="780" width="48" height="48" as="geometry" />
        </mxCell>
        <mxCell id="YEiA6fVM-5rXdiScWKsi-5" style="edgeStyle=orthogonalEdgeStyle;rounded=0;jumpSize=6;orthogonalLoop=1;jettySize=auto;html=1;strokeWidth=1;startArrow=block;startFill=1;startSize=6;endSize=8;sourcePerimeterSpacing=0;targetPerimeterSpacing=0;" edge="1" parent="1" source="AcytjInfTmPCzd0XIlV4-32" target="AcytjInfTmPCzd0XIlV4-60">
          <mxGeometry relative="1" as="geometry">
            <Array as="points">
              <mxPoint x="490" y="882" />
              <mxPoint x="490" y="882" />
            </Array>
          </mxGeometry>
        </mxCell>
        <mxCell id="AcytjInfTmPCzd0XIlV4-32" value="" style="outlineConnect=0;fontColor=#232F3E;gradientColor=none;fillColor=#D86613;strokeColor=none;dashed=0;verticalLabelPosition=bottom;verticalAlign=top;align=center;html=1;fontSize=12;fontStyle=0;aspect=fixed;pointerEvents=1;shape=mxgraph.aws4.r5_instance;" parent="1" vertex="1">
          <mxGeometry x="640" y="858" width="48" height="48" as="geometry" />
        </mxCell>
        <mxCell id="AcytjInfTmPCzd0XIlV4-35" value="Public subnet" style="points=[[0,0],[0.25,0],[0.5,0],[0.75,0],[1,0],[1,0.25],[1,0.5],[1,0.75],[1,1],[0.75,1],[0.5,1],[0.25,1],[0,1],[0,0.75],[0,0.5],[0,0.25]];outlineConnect=0;gradientColor=none;html=1;whiteSpace=wrap;fontSize=12;fontStyle=0;shape=mxgraph.aws4.group;grIcon=mxgraph.aws4.group_security_group;grStroke=0;strokeColor=#248814;fillColor=#E9F3E6;verticalAlign=top;align=left;spacingLeft=30;fontColor=#248814;dashed=0;" parent="1" vertex="1">
          <mxGeometry x="150" y="320" width="420" height="230" as="geometry" />
        </mxCell>
        <mxCell id="AcytjInfTmPCzd0XIlV4-36" value="Security group" style="fillColor=none;strokeColor=#DD3522;verticalAlign=top;fontStyle=0;fontColor=#DD3522;" parent="1" vertex="1">
          <mxGeometry x="180" y="360" width="370" height="160" as="geometry" />
        </mxCell>
        <mxCell id="AcytjInfTmPCzd0XIlV4-37" value="" style="outlineConnect=0;fontColor=#232F3E;gradientColor=none;fillColor=#D86613;strokeColor=none;dashed=0;verticalLabelPosition=bottom;verticalAlign=top;align=center;html=1;fontSize=12;fontStyle=0;aspect=fixed;pointerEvents=1;shape=mxgraph.aws4.m5_instance;" parent="1" vertex="1">
          <mxGeometry x="210" y="416" width="48" height="48" as="geometry" />
        </mxCell>
        <mxCell id="AcytjInfTmPCzd0XIlV4-38" value="" style="outlineConnect=0;fontColor=#232F3E;gradientColor=none;fillColor=#D86613;strokeColor=none;dashed=0;verticalLabelPosition=bottom;verticalAlign=top;align=center;html=1;fontSize=12;fontStyle=0;aspect=fixed;pointerEvents=1;shape=mxgraph.aws4.m5_instance;" parent="1" vertex="1">
          <mxGeometry x="320" y="416" width="48" height="48" as="geometry" />
        </mxCell>
        <mxCell id="AcytjInfTmPCzd0XIlV4-39" value="" style="outlineConnect=0;fontColor=#232F3E;gradientColor=none;fillColor=#D86613;strokeColor=none;dashed=0;verticalLabelPosition=bottom;verticalAlign=top;align=center;html=1;fontSize=12;fontStyle=0;aspect=fixed;pointerEvents=1;shape=mxgraph.aws4.m5_instance;" parent="1" vertex="1">
          <mxGeometry x="450" y="420" width="48" height="48" as="geometry" />
        </mxCell>
        <mxCell id="AcytjInfTmPCzd0XIlV4-40" value="BH1" style="text;html=1;align=center;verticalAlign=middle;resizable=0;points=[];autosize=1;" parent="1" vertex="1">
          <mxGeometry x="214" y="480" width="40" height="20" as="geometry" />
        </mxCell>
        <mxCell id="AcytjInfTmPCzd0XIlV4-41" value="BH2" style="text;html=1;align=center;verticalAlign=middle;resizable=0;points=[];autosize=1;" parent="1" vertex="1">
          <mxGeometry x="320" y="480" width="40" height="20" as="geometry" />
        </mxCell>
        <mxCell id="AcytjInfTmPCzd0XIlV4-42" value="BH3" style="text;html=1;align=center;verticalAlign=middle;resizable=0;points=[];autosize=1;" parent="1" vertex="1">
          <mxGeometry x="450" y="480" width="40" height="20" as="geometry" />
        </mxCell>
        <mxCell id="AcytjInfTmPCzd0XIlV4-43" value="LIVE-APP-O1" style="text;html=1;align=center;verticalAlign=middle;resizable=0;points=[];autosize=1;" parent="1" vertex="1">
          <mxGeometry x="310" y="840" width="90" height="20" as="geometry" />
        </mxCell>
        <mxCell id="AcytjInfTmPCzd0XIlV4-44" value="LIVE-APP-O2" style="text;html=1;align=center;verticalAlign=middle;resizable=0;points=[];autosize=1;" parent="1" vertex="1">
          <mxGeometry x="314" y="908" width="90" height="20" as="geometry" />
        </mxCell>
        <mxCell id="AcytjInfTmPCzd0XIlV4-46" value="LIVE-APP-O8" style="text;html=1;align=center;verticalAlign=middle;resizable=0;points=[];autosize=1;" parent="1" vertex="1">
          <mxGeometry x="324" y="1048" width="90" height="20" as="geometry" />
        </mxCell>
        <mxCell id="AcytjInfTmPCzd0XIlV4-47" value="LIVE-APP-O3" style="text;html=1;align=center;verticalAlign=middle;resizable=0;points=[];autosize=1;" parent="1" vertex="1">
          <mxGeometry x="310" y="975" width="90" height="20" as="geometry" />
        </mxCell>
        <mxCell id="AcytjInfTmPCzd0XIlV4-49" value="Private subnet" style="points=[[0,0],[0.25,0],[0.5,0],[0.75,0],[1,0],[1,0.25],[1,0.5],[1,0.75],[1,1],[0.75,1],[0.5,1],[0.25,1],[0,1],[0,0.75],[0,0.5],[0,0.25]];outlineConnect=0;gradientColor=none;html=1;whiteSpace=wrap;fontSize=12;fontStyle=0;shape=mxgraph.aws4.group;grIcon=mxgraph.aws4.group_security_group;grStroke=0;strokeColor=#147EBA;fillColor=#E6F2F8;verticalAlign=top;align=left;spacingLeft=30;fontColor=#147EBA;dashed=0;" parent="1" vertex="1">
          <mxGeometry x="570" y="1260" width="310" height="250" as="geometry" />
        </mxCell>
        <mxCell id="AcytjInfTmPCzd0XIlV4-51" value="Security group" style="fillColor=none;strokeColor=#DD3522;verticalAlign=top;fontStyle=0;fontColor=#DD3522;" parent="1" vertex="1">
          <mxGeometry x="590" y="1300" width="270" height="190" as="geometry" />
        </mxCell>
        <mxCell id="AcytjInfTmPCzd0XIlV4-52" value="" style="outlineConnect=0;fontColor=#232F3E;gradientColor=none;fillColor=#D86613;strokeColor=none;dashed=0;verticalLabelPosition=bottom;verticalAlign=top;align=center;html=1;fontSize=12;fontStyle=0;aspect=fixed;pointerEvents=1;shape=mxgraph.aws4.m5_instance;" parent="1" vertex="1">
          <mxGeometry x="620" y="1416" width="48" height="48" as="geometry" />
        </mxCell>
        <mxCell id="AcytjInfTmPCzd0XIlV4-53" value="" style="outlineConnect=0;fontColor=#232F3E;gradientColor=none;fillColor=#D86613;strokeColor=none;dashed=0;verticalLabelPosition=bottom;verticalAlign=top;align=center;html=1;fontSize=12;fontStyle=0;aspect=fixed;pointerEvents=1;shape=mxgraph.aws4.m5_instance;" parent="1" vertex="1">
          <mxGeometry x="770" y="1370" width="48" height="48" as="geometry" />
        </mxCell>
        <mxCell id="AcytjInfTmPCzd0XIlV4-54" value="" style="outlineConnect=0;fontColor=#232F3E;gradientColor=none;fillColor=#D86613;strokeColor=none;dashed=0;verticalLabelPosition=bottom;verticalAlign=top;align=center;html=1;fontSize=12;fontStyle=0;aspect=fixed;pointerEvents=1;shape=mxgraph.aws4.m5_instance;" parent="1" vertex="1">
          <mxGeometry x="620" y="1330" width="48" height="48" as="geometry" />
        </mxCell>
        <mxCell id="AcytjInfTmPCzd0XIlV4-55" value="PROXY-1" style="text;html=1;align=center;verticalAlign=middle;resizable=0;points=[];autosize=1;" parent="1" vertex="1">
          <mxGeometry x="610" y="1384" width="70" height="20" as="geometry" />
        </mxCell>
        <mxCell id="AcytjInfTmPCzd0XIlV4-56" value="PROXY-2" style="text;html=1;align=center;verticalAlign=middle;resizable=0;points=[];autosize=1;" parent="1" vertex="1">
          <mxGeometry x="609" y="1470" width="70" height="20" as="geometry" />
        </mxCell>
        <mxCell id="AcytjInfTmPCzd0XIlV4-57" value="READ-REPLICA" style="text;html=1;align=center;verticalAlign=middle;resizable=0;points=[];autosize=1;" parent="1" vertex="1">
          <mxGeometry x="744" y="1430" width="100" height="20" as="geometry" />
        </mxCell>
        <mxCell id="AcytjInfTmPCzd0XIlV4-60" value="" style="outlineConnect=0;fontColor=#232F3E;gradientColor=none;fillColor=#D86613;strokeColor=none;dashed=0;verticalLabelPosition=bottom;verticalAlign=top;align=center;html=1;fontSize=12;fontStyle=0;aspect=fixed;pointerEvents=1;shape=mxgraph.aws4.m5_instance;" parent="1" vertex="1">
          <mxGeometry x="341" y="860" width="48" height="48" as="geometry" />
        </mxCell>
        <mxCell id="AcytjInfTmPCzd0XIlV4-61" value="LIVE-APP-11" style="text;html=1;align=center;verticalAlign=middle;resizable=0;points=[];autosize=1;" parent="1" vertex="1">
          <mxGeometry x="185" y="858" width="90" height="20" as="geometry" />
        </mxCell>
        <mxCell id="AcytjInfTmPCzd0XIlV4-62" value="CSNG-DMS-App-01-G" style="text;html=1;align=center;verticalAlign=middle;resizable=0;points=[];autosize=1;" parent="1" vertex="1">
          <mxGeometry x="178.25" y="935" width="140" height="20" as="geometry" />
        </mxCell>
        <mxCell id="AcytjInfTmPCzd0XIlV4-63" value="LIVE-App-11-&lt;br&gt;Dashboard" style="text;html=1;align=center;verticalAlign=middle;resizable=0;points=[];autosize=1;" parent="1" vertex="1">
          <mxGeometry x="318.25" y="1140" width="100" height="40" as="geometry" />
        </mxCell>
        <mxCell id="AcytjInfTmPCzd0XIlV4-64" value="LIVE--App-10-&lt;br&gt;Scheduler-02" style="text;html=1;align=center;verticalAlign=middle;resizable=0;points=[];autosize=1;" parent="1" vertex="1">
          <mxGeometry x="184" y="1112" width="100" height="40" as="geometry" />
        </mxCell>
        <mxCell id="AcytjInfTmPCzd0XIlV4-65" value="UAT-APP-01" style="text;html=1;align=center;verticalAlign=middle;resizable=0;points=[];autosize=1;" parent="1" vertex="1">
          <mxGeometry x="190" y="1036" width="80" height="20" as="geometry" />
        </mxCell>
        <mxCell id="AcytjInfTmPCzd0XIlV4-66" value="LIVE-App-07-MONTH-END" style="text;html=1;align=center;verticalAlign=middle;resizable=0;points=[];autosize=1;" parent="1" vertex="1">
          <mxGeometry x="630" y="830" width="160" height="20" as="geometry" />
        </mxCell>
        <mxCell id="AcytjInfTmPCzd0XIlV4-67" value="LIVE-App-05" style="text;html=1;align=center;verticalAlign=middle;resizable=0;points=[];autosize=1;" parent="1" vertex="1">
          <mxGeometry x="625" y="965" width="80" height="20" as="geometry" />
        </mxCell>
        <mxCell id="AcytjInfTmPCzd0XIlV4-68" value="LIVE-App-06" style="text;html=1;align=center;verticalAlign=middle;resizable=0;points=[];autosize=1;" parent="1" vertex="1">
          <mxGeometry x="630" y="1056" width="80" height="20" as="geometry" />
        </mxCell>
        <mxCell id="AcytjInfTmPCzd0XIlV4-70" value="Private subnet" style="points=[[0,0],[0.25,0],[0.5,0],[0.75,0],[1,0],[1,0.25],[1,0.5],[1,0.75],[1,1],[0.75,1],[0.5,1],[0.25,1],[0,1],[0,0.75],[0,0.5],[0,0.25]];outlineConnect=0;gradientColor=none;html=1;whiteSpace=wrap;fontSize=12;fontStyle=0;shape=mxgraph.aws4.group;grIcon=mxgraph.aws4.group_security_group;grStroke=0;strokeColor=#147EBA;fillColor=#E6F2F8;verticalAlign=top;align=left;spacingLeft=30;fontColor=#147EBA;dashed=0;" parent="1" vertex="1">
          <mxGeometry x="164" y="1294" width="216" height="140" as="geometry" />
        </mxCell>
        <mxCell id="AcytjInfTmPCzd0XIlV4-71" value="" style="outlineConnect=0;fontColor=#232F3E;gradientColor=none;fillColor=#D86613;strokeColor=none;dashed=0;verticalLabelPosition=bottom;verticalAlign=top;align=center;html=1;fontSize=12;fontStyle=0;aspect=fixed;pointerEvents=1;shape=mxgraph.aws4.r5_instance;" parent="1" vertex="1">
          <mxGeometry x="230" y="1340" width="48" height="48" as="geometry" />
        </mxCell>
        <mxCell id="AcytjInfTmPCzd0XIlV4-72" value="UAT-CSNG-DMS-DB" style="text;html=1;align=center;verticalAlign=middle;resizable=0;points=[];autosize=1;" parent="1" vertex="1">
          <mxGeometry x="180" y="1398" width="130" height="20" as="geometry" />
        </mxCell>
        <mxCell id="AcytjInfTmPCzd0XIlV4-73" value="Security group" style="fillColor=none;strokeColor=#DD3522;verticalAlign=top;fontStyle=0;fontColor=#DD3522;" parent="1" vertex="1">
          <mxGeometry x="180" y="1320" width="180" height="100" as="geometry" />
        </mxCell>
        <mxCell id="AcytjInfTmPCzd0XIlV4-74" value="Private subnet" style="points=[[0,0],[0.25,0],[0.5,0],[0.75,0],[1,0],[1,0.25],[1,0.5],[1,0.75],[1,1],[0.75,1],[0.5,1],[0.25,1],[0,1],[0,0.75],[0,0.5],[0,0.25]];outlineConnect=0;gradientColor=none;html=1;whiteSpace=wrap;fontSize=12;fontStyle=0;shape=mxgraph.aws4.group;grIcon=mxgraph.aws4.group_security_group;grStroke=0;strokeColor=#147EBA;fillColor=#E6F2F8;verticalAlign=top;align=left;spacingLeft=30;fontColor=#147EBA;dashed=0;" parent="1" vertex="1">
          <mxGeometry x="140" y="1540" width="330" height="190" as="geometry" />
        </mxCell>
        <mxCell id="AcytjInfTmPCzd0XIlV4-75" value="Security group" style="fillColor=none;strokeColor=#DD3522;verticalAlign=top;fontStyle=0;fontColor=#DD3522;" parent="1" vertex="1">
          <mxGeometry x="160" y="1590" width="290" height="120" as="geometry" />
        </mxCell>
        <mxCell id="AcytjInfTmPCzd0XIlV4-76" value="" style="outlineConnect=0;dashed=0;verticalLabelPosition=bottom;verticalAlign=top;align=center;html=1;shape=mxgraph.aws3.rds_db_instance;fillColor=#2E73B8;gradientColor=none;" parent="1" vertex="1">
          <mxGeometry x="178.25" y="1617" width="69.75" height="66" as="geometry" />
        </mxCell>
        <mxCell id="AcytjInfTmPCzd0XIlV4-78" value="" style="outlineConnect=0;dashed=0;verticalLabelPosition=bottom;verticalAlign=top;align=center;html=1;shape=mxgraph.aws3.rds_db_instance;fillColor=#2E73B8;gradientColor=none;" parent="1" vertex="1">
          <mxGeometry x="360.25" y="1617" width="69.75" height="66" as="geometry" />
        </mxCell>
        <mxCell id="AcytjInfTmPCzd0XIlV4-79" value="&lt;a class=&quot;awsui-util-ml-m&quot; id=&quot;db-list-page-db-identifier-col&quot; href=&quot;https://ap-south-1.console.aws.amazon.com/rds/home?region=ap-south-1#database:id=csng-dashboard-rds-db;is-cluster=false&quot;&gt;csng-dashboard-rds-db&lt;/a&gt;" style="text;html=1;align=center;verticalAlign=middle;resizable=0;points=[];autosize=1;" parent="1" vertex="1">
          <mxGeometry x="160" y="1683" width="140" height="20" as="geometry" />
        </mxCell>
        <mxCell id="AcytjInfTmPCzd0XIlV4-80" value="&lt;a class=&quot;awsui-util-ml-m&quot; id=&quot;db-list-page-db-identifier-col&quot; href=&quot;https://ap-south-1.console.aws.amazon.com/rds/home?region=ap-south-1#database:id=nestlecsngproddb;is-cluster=false&quot;&gt;nestlecsngproddb&lt;/a&gt;" style="text;html=1;align=center;verticalAlign=middle;resizable=0;points=[];autosize=1;" parent="1" vertex="1">
          <mxGeometry x="340" y="1683" width="110" height="20" as="geometry" />
        </mxCell>
        <mxCell id="AcytjInfTmPCzd0XIlV4-82" value="Private subnet" style="points=[[0,0],[0.25,0],[0.5,0],[0.75,0],[1,0],[1,0.25],[1,0.5],[1,0.75],[1,1],[0.75,1],[0.5,1],[0.25,1],[0,1],[0,0.75],[0,0.5],[0,0.25]];outlineConnect=0;gradientColor=none;html=1;whiteSpace=wrap;fontSize=12;fontStyle=0;shape=mxgraph.aws4.group;grIcon=mxgraph.aws4.group_security_group;grStroke=0;strokeColor=#147EBA;fillColor=#E6F2F8;verticalAlign=top;align=left;spacingLeft=30;fontColor=#147EBA;dashed=0;" parent="1" vertex="1">
          <mxGeometry x="540" y="1560" width="190" height="150" as="geometry" />
        </mxCell>
        <mxCell id="AcytjInfTmPCzd0XIlV4-84" value="" style="outlineConnect=0;dashed=0;verticalLabelPosition=bottom;verticalAlign=top;align=center;html=1;shape=mxgraph.aws3.rds_db_instance;fillColor=#2E73B8;gradientColor=none;" parent="1" vertex="1">
          <mxGeometry x="600" y="1617" width="40" height="40" as="geometry" />
        </mxCell>
        <mxCell id="AcytjInfTmPCzd0XIlV4-85" value="&lt;a class=&quot;awsui-util-ml-m&quot; id=&quot;db-list-page-db-identifier-col&quot; href=&quot;https://ap-south-1.console.aws.amazon.com/rds/home?region=ap-south-1#database:id=nestlecsngproddbreadreplica;is-cluster=false&quot;&gt;nestlecsngproddbreadreplica&lt;/a&gt;" style="text;html=1;align=center;verticalAlign=middle;resizable=0;points=[];autosize=1;" parent="1" vertex="1">
          <mxGeometry x="550" y="1670" width="170" height="20" as="geometry" />
        </mxCell>
        <mxCell id="AcytjInfTmPCzd0XIlV4-87" value="AZ-1A" style="fillColor=none;strokeColor=#147EBA;dashed=1;verticalAlign=top;fontStyle=0;fontColor=#147EBA;strokeWidth=3;fontSize=13;" parent="1" vertex="1">
          <mxGeometry x="140" y="280" width="470" height="280" as="geometry" />
        </mxCell>
        <mxCell id="AcytjInfTmPCzd0XIlV4-91" value="Security group" style="fillColor=none;strokeColor=#DD3522;verticalAlign=top;fontStyle=0;fontColor=#DD3522;" parent="1" vertex="1">
          <mxGeometry x="550" y="1600" width="170" height="100" as="geometry" />
        </mxCell>
        <mxCell id="AcytjInfTmPCzd0XIlV4-93" value="AZ-1B" style="fillColor=none;strokeColor=#147EBA;dashed=1;verticalAlign=top;fontStyle=0;fontColor=#147EBA;" parent="1" vertex="1">
          <mxGeometry x="150" y="1270" width="250" height="170" as="geometry" />
        </mxCell>
        <mxCell id="AcytjInfTmPCzd0XIlV4-94" value="AZ-1B" style="fillColor=none;strokeColor=#147EBA;dashed=1;verticalAlign=top;fontStyle=0;fontColor=#147EBA;" parent="1" vertex="1">
          <mxGeometry x="550" y="1240" width="350" height="290" as="geometry" />
        </mxCell>
        <mxCell id="AcytjInfTmPCzd0XIlV4-95" value="AZ-1A" style="fillColor=none;strokeColor=#147EBA;dashed=1;verticalAlign=top;fontStyle=0;fontColor=#147EBA;" parent="1" vertex="1">
          <mxGeometry x="130" y="1510" width="350" height="230" as="geometry" />
        </mxCell>
        <mxCell id="AcytjInfTmPCzd0XIlV4-96" value="AZ-1B" style="fillColor=none;strokeColor=#147EBA;dashed=1;verticalAlign=top;fontStyle=0;fontColor=#147EBA;" parent="1" vertex="1">
          <mxGeometry x="530" y="1540" width="220" height="180" as="geometry" />
        </mxCell>
        <mxCell id="AcytjInfTmPCzd0XIlV4-97" value="LIVE-App-09-Scheduler-01" style="text;html=1;align=center;verticalAlign=middle;resizable=0;points=[];autosize=1;fontSize=13;" parent="1" vertex="1">
          <mxGeometry x="705" y="850" width="170" height="20" as="geometry" />
        </mxCell>
        <mxCell id="AcytjInfTmPCzd0XIlV4-98" value="UAT-CSNG-DMS-APP-02" style="text;html=1;align=center;verticalAlign=middle;resizable=0;points=[];autosize=1;fontSize=13;" parent="1" vertex="1">
          <mxGeometry x="688" y="880" width="160" height="20" as="geometry" />
        </mxCell>
        <mxCell id="AcytjInfTmPCzd0XIlV4-99" value="LIVE-App-04" style="text;html=1;align=center;verticalAlign=middle;resizable=0;points=[];autosize=1;fontSize=13;" parent="1" vertex="1">
          <mxGeometry x="760" y="1068" width="90" height="20" as="geometry" />
        </mxCell>
        <mxCell id="AcytjInfTmPCzd0XIlV4-100" value="" style="pointerEvents=1;shadow=0;dashed=0;html=1;strokeColor=none;fillColor=#005F4B;labelPosition=center;verticalLabelPosition=bottom;verticalAlign=top;align=center;outlineConnect=0;shape=mxgraph.veeam2.datacenter;fontSize=13;" parent="1" vertex="1">
          <mxGeometry x="333.5" y="-90" width="83" height="53" as="geometry" />
        </mxCell>
        <mxCell id="YEiA6fVM-5rXdiScWKsi-7" style="edgeStyle=orthogonalEdgeStyle;rounded=0;jumpSize=6;orthogonalLoop=1;jettySize=auto;html=1;entryX=0.5;entryY=0;entryDx=0;entryDy=0;entryPerimeter=0;strokeWidth=1;startArrow=block;startFill=1;startSize=6;endSize=8;sourcePerimeterSpacing=0;targetPerimeterSpacing=0;" edge="1" parent="1" source="AcytjInfTmPCzd0XIlV4-101" target="AcytjInfTmPCzd0XIlV4-130">
          <mxGeometry relative="1" as="geometry" />
        </mxCell>
        <mxCell id="AcytjInfTmPCzd0XIlV4-101" value="" style="outlineConnect=0;dashed=0;verticalLabelPosition=bottom;verticalAlign=top;align=center;html=1;shape=mxgraph.aws3.users;fillColor=#D2D3D3;gradientColor=none;strokeWidth=3;fontSize=13;" parent="1" vertex="1">
          <mxGeometry x="669.5" y="-90" width="66" height="63" as="geometry" />
        </mxCell>
        <mxCell id="AcytjInfTmPCzd0XIlV4-102" value="" style="outlineConnect=0;dashed=0;verticalLabelPosition=bottom;verticalAlign=top;align=center;html=1;shape=mxgraph.aws3.s3;fillColor=#E05243;gradientColor=none;strokeWidth=3;fontSize=13;" parent="1" vertex="1">
          <mxGeometry x="1080" y="1000" width="76.5" height="93" as="geometry" />
        </mxCell>
        <mxCell id="AcytjInfTmPCzd0XIlV4-103" value="" style="outlineConnect=0;dashed=0;verticalLabelPosition=bottom;verticalAlign=top;align=center;html=1;shape=mxgraph.aws3.cloudwatch;fillColor=#759C3E;gradientColor=none;strokeWidth=3;fontSize=13;" parent="1" vertex="1">
          <mxGeometry x="970" y="1140" width="60" height="70" as="geometry" />
        </mxCell>
        <mxCell id="AcytjInfTmPCzd0XIlV4-104" value="" style="outlineConnect=0;dashed=0;verticalLabelPosition=bottom;verticalAlign=top;align=center;html=1;shape=mxgraph.aws3.sns;fillColor=#D9A741;gradientColor=none;strokeWidth=3;fontSize=13;" parent="1" vertex="1">
          <mxGeometry x="959" y="928" width="60" height="76.5" as="geometry" />
        </mxCell>
        <mxCell id="AcytjInfTmPCzd0XIlV4-105" value="" style="outlineConnect=0;dashed=0;verticalLabelPosition=bottom;verticalAlign=top;align=center;html=1;shape=mxgraph.aws3.email_notification;fillColor=#D9A741;gradientColor=none;strokeWidth=3;fontSize=13;" parent="1" vertex="1">
          <mxGeometry x="948" y="650" width="82" height="63" as="geometry" />
        </mxCell>
        <mxCell id="AcytjInfTmPCzd0XIlV4-106" value="" style="edgeStyle=orthogonalEdgeStyle;html=1;endArrow=block;elbow=vertical;startArrow=block;startFill=1;endFill=1;strokeColor=#545B64;rounded=0;fontSize=13;exitX=0.5;exitY=1;exitDx=0;exitDy=0;exitPerimeter=0;entryX=0.5;entryY=0;entryDx=0;entryDy=0;entryPerimeter=0;" parent="1" source="AcytjInfTmPCzd0XIlV4-105" target="AcytjInfTmPCzd0XIlV4-104" edge="1">
          <mxGeometry width="100" relative="1" as="geometry">
            <mxPoint x="950" y="830" as="sourcePoint" />
            <mxPoint x="1050" y="830" as="targetPoint" />
          </mxGeometry>
        </mxCell>
        <mxCell id="AcytjInfTmPCzd0XIlV4-107" value="" style="edgeStyle=orthogonalEdgeStyle;html=1;endArrow=block;elbow=vertical;startArrow=block;startFill=1;endFill=1;strokeColor=#545B64;rounded=0;fontSize=13;entryX=0.35;entryY=0;entryDx=0;entryDy=0;entryPerimeter=0;jumpSize=12;targetPerimeterSpacing=0;endSize=8;sourcePerimeterSpacing=0;" parent="1" target="AcytjInfTmPCzd0XIlV4-103" edge="1">
          <mxGeometry width="100" relative="1" as="geometry">
            <mxPoint x="991" y="1000" as="sourcePoint" />
            <mxPoint x="1040" y="1060" as="targetPoint" />
          </mxGeometry>
        </mxCell>
        <mxCell id="AcytjInfTmPCzd0XIlV4-108" value="" style="edgeStyle=orthogonalEdgeStyle;html=1;endArrow=block;elbow=vertical;startArrow=block;startFill=1;endFill=1;strokeColor=#545B64;rounded=0;fontSize=13;" parent="1" edge="1">
          <mxGeometry width="100" relative="1" as="geometry">
            <mxPoint x="930" y="1190" as="sourcePoint" />
            <mxPoint x="990" y="1190" as="targetPoint" />
          </mxGeometry>
        </mxCell>
        <mxCell id="AcytjInfTmPCzd0XIlV4-109" value="" style="edgeStyle=orthogonalEdgeStyle;html=1;endArrow=block;elbow=vertical;startArrow=block;startFill=1;endFill=1;strokeColor=#545B64;rounded=0;fontSize=13;" parent="1" target="AcytjInfTmPCzd0XIlV4-102" edge="1">
          <mxGeometry width="100" relative="1" as="geometry">
            <mxPoint x="1052" y="1046" as="sourcePoint" />
            <mxPoint x="1122" y="1046.4285714285716" as="targetPoint" />
          </mxGeometry>
        </mxCell>
        <mxCell id="AcytjInfTmPCzd0XIlV4-110" value="UAT-CSNG-DMS-APP-02" style="text;html=1;align=center;verticalAlign=middle;resizable=0;points=[];autosize=1;fontSize=13;" parent="1" vertex="1">
          <mxGeometry x="634" y="1160" width="160" height="20" as="geometry" />
        </mxCell>
        <mxCell id="AcytjInfTmPCzd0XIlV4-130" value="" style="outlineConnect=0;dashed=0;verticalLabelPosition=bottom;verticalAlign=top;align=center;html=1;shape=mxgraph.aws3.classic_load_balancer;fillColor=#F58534;gradientColor=none;strokeWidth=3;fontSize=13;" parent="1" vertex="1">
          <mxGeometry x="668" y="260" width="69" height="72" as="geometry" />
        </mxCell>
        <mxCell id="AcytjInfTmPCzd0XIlV4-132" value="Network Load Balancer" style="outlineConnect=0;fontColor=#232F3E;gradientColor=none;strokeColor=#ffffff;fillColor=#232F3E;dashed=0;verticalLabelPosition=middle;verticalAlign=bottom;align=center;html=1;whiteSpace=wrap;fontSize=10;fontStyle=1;spacing=3;shape=mxgraph.aws4.productIcon;prIcon=mxgraph.aws4.network_load_balancer;" parent="1" vertex="1">
          <mxGeometry x="440" y="1294" width="50" height="100" as="geometry" />
        </mxCell>
        <mxCell id="AcytjInfTmPCzd0XIlV4-134" value="" style="edgeStyle=orthogonalEdgeStyle;html=1;endArrow=block;elbow=vertical;startArrow=block;startFill=1;endFill=1;strokeColor=#545B64;rounded=0;fontSize=13;exitX=0.5;exitY=1;exitDx=0;exitDy=0;" parent="1" source="AcytjInfTmPCzd0XIlV4-87" target="AcytjInfTmPCzd0XIlV4-9" edge="1">
          <mxGeometry width="100" relative="1" as="geometry">
            <mxPoint x="370" y="610" as="sourcePoint" />
            <mxPoint x="470" y="610" as="targetPoint" />
          </mxGeometry>
        </mxCell>
        <mxCell id="AcytjInfTmPCzd0XIlV4-135" value="" style="edgeStyle=orthogonalEdgeStyle;html=1;endArrow=block;elbow=vertical;startArrow=block;startFill=1;endFill=1;strokeColor=#545B64;rounded=0;fontSize=13;" parent="1" target="AcytjInfTmPCzd0XIlV4-96" edge="1">
          <mxGeometry width="100" relative="1" as="geometry">
            <mxPoint x="430" y="1660" as="sourcePoint" />
            <mxPoint x="530" y="1660" as="targetPoint" />
            <Array as="points">
              <mxPoint x="500" y="1660" />
              <mxPoint x="500" y="1630" />
            </Array>
          </mxGeometry>
        </mxCell>
        <mxCell id="AcytjInfTmPCzd0XIlV4-136" value="" style="edgeStyle=orthogonalEdgeStyle;html=1;endArrow=block;elbow=vertical;startArrow=block;startFill=1;endFill=1;strokeColor=#545B64;rounded=0;fontSize=13;" parent="1" source="AcytjInfTmPCzd0XIlV4-63" edge="1">
          <mxGeometry width="100" relative="1" as="geometry">
            <mxPoint x="200" y="1260" as="sourcePoint" />
            <mxPoint x="250" y="1320" as="targetPoint" />
          </mxGeometry>
        </mxCell>
        <mxCell id="AcytjInfTmPCzd0XIlV4-137" value="" style="edgeStyle=orthogonalEdgeStyle;html=1;endArrow=block;elbow=vertical;startArrow=block;startFill=1;endFill=1;strokeColor=#545B64;rounded=0;fontSize=13;" parent="1" source="AcytjInfTmPCzd0XIlV4-100" target="AcytjInfTmPCzd0XIlV4-87" edge="1">
          <mxGeometry width="100" relative="1" as="geometry">
            <mxPoint x="210" y="190" as="sourcePoint" />
            <mxPoint x="310" y="190" as="targetPoint" />
          </mxGeometry>
        </mxCell>
        <mxCell id="AcytjInfTmPCzd0XIlV4-138" value="" style="edgeStyle=orthogonalEdgeStyle;html=1;endArrow=block;elbow=vertical;startArrow=block;startFill=1;endFill=1;strokeColor=#545B64;rounded=0;fontSize=13;" parent="1" source="AcytjInfTmPCzd0XIlV4-132" target="AcytjInfTmPCzd0XIlV4-94" edge="1">
          <mxGeometry width="100" relative="1" as="geometry">
            <mxPoint x="430" y="1260" as="sourcePoint" />
            <mxPoint x="530" y="1260" as="targetPoint" />
            <Array as="points">
              <mxPoint x="520" y="1330" />
              <mxPoint x="520" y="1385" />
            </Array>
          </mxGeometry>
        </mxCell>
        <mxCell id="AcytjInfTmPCzd0XIlV4-139" value="" style="edgeStyle=orthogonalEdgeStyle;html=1;endArrow=block;elbow=vertical;startArrow=block;startFill=1;endFill=1;strokeColor=#545B64;rounded=0;fontSize=13;" parent="1" target="AcytjInfTmPCzd0XIlV4-132" edge="1">
          <mxGeometry width="100" relative="1" as="geometry">
            <mxPoint x="410" y="1190" as="sourcePoint" />
            <mxPoint x="510" y="1190" as="targetPoint" />
          </mxGeometry>
        </mxCell>
        <mxCell id="AcytjInfTmPCzd0XIlV4-141" value="" style="edgeStyle=orthogonalEdgeStyle;html=1;endArrow=block;elbow=vertical;startArrow=block;startFill=1;endFill=1;strokeColor=#545B64;rounded=0;fontSize=13;entryX=0.849;entryY=-0.018;entryDx=0;entryDy=0;entryPerimeter=0;" parent="1" target="AcytjInfTmPCzd0XIlV4-95" edge="1">
          <mxGeometry width="100" relative="1" as="geometry">
            <mxPoint x="380" y="1210" as="sourcePoint" />
            <mxPoint x="480" y="1210" as="targetPoint" />
            <Array as="points">
              <mxPoint x="427" y="1210" />
            </Array>
          </mxGeometry>
        </mxCell>
        <mxCell id="AcytjInfTmPCzd0XIlV4-143" value="" style="edgeStyle=orthogonalEdgeStyle;html=1;endArrow=block;elbow=vertical;startArrow=block;startFill=1;endFill=1;strokeColor=#545B64;rounded=0;fontSize=13;entryX=0.835;entryY=1.004;entryDx=0;entryDy=0;entryPerimeter=0;" parent="1" source="AcytjInfTmPCzd0XIlV4-96" target="AcytjInfTmPCzd0XIlV4-94" edge="1">
          <mxGeometry width="100" relative="1" as="geometry">
            <mxPoint x="760" y="1620" as="sourcePoint" />
            <mxPoint x="860" y="1620" as="targetPoint" />
            <Array as="points">
              <mxPoint x="770" y="1630" />
              <mxPoint x="770" y="1550" />
              <mxPoint x="842" y="1550" />
            </Array>
          </mxGeometry>
        </mxCell>
        <mxCell id="AcytjInfTmPCzd0XIlV4-146" value="port:3306" style="text;html=1;align=center;verticalAlign=middle;resizable=0;points=[];autosize=1;fontSize=13;" parent="1" vertex="1">
          <mxGeometry x="360.25" y="1470" width="70" height="20" as="geometry" />
        </mxCell>
        <mxCell id="AcytjInfTmPCzd0XIlV4-148" value="Botree network" style="text;html=1;align=center;verticalAlign=middle;resizable=0;points=[];autosize=1;fontSize=13;" parent="1" vertex="1">
          <mxGeometry x="268" y="-32" width="100" height="20" as="geometry" />
        </mxCell>
        <mxCell id="AcytjInfTmPCzd0XIlV4-149" value="users" style="text;html=1;align=center;verticalAlign=middle;resizable=0;points=[];autosize=1;fontSize=13;" parent="1" vertex="1">
          <mxGeometry x="634" y="-32" width="50" height="20" as="geometry" />
        </mxCell>
        <mxCell id="AcytjInfTmPCzd0XIlV4-150" value="&lt;b&gt;&lt;font style=&quot;font-size: 20px&quot;&gt;s3&lt;/font&gt;&lt;/b&gt;" style="text;html=1;align=center;verticalAlign=middle;resizable=0;points=[];autosize=1;fontSize=13;" parent="1" vertex="1">
          <mxGeometry x="1100" y="1100" width="40" height="20" as="geometry" />
        </mxCell>
        <mxCell id="AcytjInfTmPCzd0XIlV4-151" value="&lt;font style=&quot;font-size: 20px&quot;&gt;cloudwatch&lt;/font&gt;" style="text;html=1;align=center;verticalAlign=middle;resizable=0;points=[];autosize=1;fontSize=13;" parent="1" vertex="1">
          <mxGeometry x="929" y="1220" width="120" height="20" as="geometry" />
        </mxCell>
        <mxCell id="AcytjInfTmPCzd0XIlV4-152" value="&lt;span style=&quot;font-size: 20px&quot;&gt;SNS&lt;/span&gt;" style="text;html=1;align=center;verticalAlign=middle;resizable=0;points=[];autosize=1;fontSize=13;" parent="1" vertex="1">
          <mxGeometry x="960" y="1022" width="60" height="20" as="geometry" />
        </mxCell>
        <mxCell id="AcytjInfTmPCzd0XIlV4-155" value="&lt;span style=&quot;font-size: 20px&quot;&gt;Email&lt;/span&gt;" style="text;html=1;align=center;verticalAlign=middle;resizable=0;points=[];autosize=1;fontSize=13;" parent="1" vertex="1">
          <mxGeometry x="963.25" y="730" width="70" height="20" as="geometry" />
        </mxCell>
        <mxCell id="AcytjInfTmPCzd0XIlV4-157" value="&lt;span style=&quot;font-size: 20px&quot;&gt;classic load balance&lt;/span&gt;" style="text;html=1;align=center;verticalAlign=middle;resizable=0;points=[];autosize=1;fontSize=13;" parent="1" vertex="1">
          <mxGeometry x="625" y="332" width="190" height="20" as="geometry" />
        </mxCell>
      </root>
    </mxGraphModel>
  </diagram>
</mxfile>
